<svg version="1.1" id="Layer_1" xmlns="http://www.w3.org/2000/svg" xmlns:xlink="http://www.w3.org/1999/xlink" x="0px" y="0px"
	 width="100%" viewBox="0 0 578 249" enable-background="new 0 0 578 249" xml:space="preserve">
<path fill="#121410" opacity="1.000000" stroke="none" 
	d="
M387.000000,250.000000 
	C258.038849,250.000000 129.577682,250.000000 1.058260,250.000000 
	C1.058260,167.063965 1.058260,84.127869 1.058260,1.095891 
	C193.544479,1.095891 386.089020,1.095891 578.816772,1.095891 
	C578.816772,83.999672 578.816772,166.999802 578.816772,250.000000 
	C515.127930,250.000000 451.313965,250.000000 387.000000,250.000000 
M97.180893,129.116913 
	C94.526154,125.932678 91.871407,122.748444 89.158394,119.230446 
	C89.158394,119.230446 88.939240,118.972061 88.862518,118.291435 
	C85.668243,113.434517 82.372627,108.640785 79.297684,103.709457 
	C67.561089,84.887352 66.274536,65.672539 77.449608,46.115154 
	C88.007225,27.638363 103.881950,15.697588 123.747368,8.730121 
	C127.016350,7.583580 130.314331,6.519711 133.598907,5.417631 
	C133.458328,4.596363 133.317749,3.775094 133.177185,2.953825 
	C113.862755,3.650060 94.382004,3.027374 75.283524,5.435921 
	C58.246658,7.584474 43.798973,16.562258 33.145481,31.475721 
	C33.039146,31.838732 32.932816,32.201744 32.220638,32.925957 
	C31.062969,34.882240 29.905300,36.838524 28.863476,39.023163 
	C28.863476,39.023163 28.768869,38.787033 28.154985,39.043606 
	C18.542171,54.596157 16.958742,71.356804 21.106535,88.791252 
	C23.338839,98.174309 26.877558,107.076759 33.711113,114.326508 
	C33.711113,114.326508 33.754780,114.384750 33.893452,115.027634 
	C38.273098,119.673553 42.652740,124.319473 47.238773,129.132004 
	C47.238773,129.132004 47.502338,129.102188 47.835117,129.627289 
	C48.200413,129.796112 48.565708,129.964920 48.855095,130.093643 
	C48.855095,130.093643 48.820591,130.172256 48.981045,130.817642 
	C49.558994,131.402832 50.051205,132.122711 50.727589,132.553253 
	C63.325558,140.572372 75.966370,148.524277 88.550339,156.565186 
	C93.554665,159.762848 99.107140,162.478760 103.222000,166.600174 
	C108.766212,172.153183 110.011749,179.460754 106.813400,186.936234 
	C103.680466,194.258835 97.850182,197.811478 89.951096,197.979111 
	C85.794022,198.067337 81.619164,197.806686 77.479652,198.095306 
	C73.411690,198.378937 70.744919,196.621063 69.021957,193.225967 
	C61.442848,178.291290 41.015152,171.969742 24.555462,181.350418 
	C13.364116,187.728592 7.133299,200.985504 9.278810,215.061569 
	C11.126902,227.186356 21.178888,237.981522 33.626228,240.831100 
	C34.089321,240.852310 34.552418,240.873520 35.752048,241.205780 
	C41.742538,240.492126 47.938427,240.497360 53.665306,238.861069 
	C59.308155,237.248795 64.606918,234.133484 67.128601,228.107773 
	C67.128601,228.107773 67.150490,228.112045 67.749268,227.835098 
	C69.354454,224.407913 71.350777,221.100815 72.450615,217.518494 
	C73.472252,214.190842 75.180801,212.980362 78.525330,213.050247 
	C83.006264,213.143890 87.494675,212.879898 92.784744,212.818161 
	C104.966042,211.280106 114.273178,205.502823 120.089256,194.460770 
	C123.914528,187.198318 123.913277,179.492371 122.898369,171.670441 
	C121.426216,160.324448 117.325043,150.271576 108.007690,142.855042 
	C108.007690,142.855042 108.306824,142.698746 108.198204,142.028748 
	C104.563774,137.925873 100.929344,133.822998 97.200241,129.756088 
	C97.200241,129.756088 97.288910,129.805023 97.180893,129.116913 
M185.183228,217.209427 
	C185.183228,217.209427 185.265579,217.257065 185.908646,217.084229 
	C198.028702,202.145187 202.819061,184.954422 200.287903,166.072144 
	C199.324509,158.885254 196.177551,151.991074 193.998184,144.999634 
	C193.998184,144.999634 194.041489,144.985947 194.014313,144.240936 
	C184.215912,121.709534 166.182068,107.701630 145.008835,96.990295 
	C145.008835,96.990295 145.069489,96.940941 144.708054,96.370560 
	C139.787567,93.613945 134.793839,90.978706 129.967545,88.066010 
	C125.297058,85.247322 120.232468,82.741089 116.334396,79.048828 
	C105.872185,69.138992 110.231346,51.830822 124.136993,48.233326 
	C129.802475,46.767620 135.945755,47.148830 142.661163,46.804733 
	C143.455933,46.765728 144.250702,46.726719 145.518265,47.198540 
	C146.925308,48.780159 148.662750,50.173950 149.685974,51.973778 
	C156.509552,63.976414 166.715118,69.697861 180.507309,69.042717 
	C196.718307,68.272675 211.014008,54.036991 210.844299,38.178635 
	C210.797256,36.776909 210.750214,35.375179 210.882294,33.171116 
	C209.012680,28.302338 207.143051,23.433559 205.126663,17.961563 
	C204.889481,17.626467 204.652298,17.291370 204.346634,16.355463 
	C202.511429,14.438439 200.815750,12.360147 198.817627,10.631433 
	C188.426132,1.641004 171.451202,0.912188 161.006989,8.924272 
	C161.006989,8.924272 160.900696,8.873818 160.232941,9.019181 
	C154.022842,12.877063 149.559769,18.407747 147.881546,25.332769 
	C146.527679,30.919403 143.901566,32.634296 138.582397,32.019413 
	C135.462387,31.658745 132.106308,31.349966 129.133881,32.107109 
	C122.466660,33.805393 115.278000,35.039150 109.548325,38.516331 
	C96.363625,46.517757 92.049904,64.898079 97.931702,81.337967 
	C102.200577,93.269646 110.389862,102.429558 118.444382,111.726845 
	C128.352859,123.164139 138.479355,134.362076 144.145493,148.820175 
	C149.873947,163.437347 152.123840,178.055313 145.802551,192.961060 
	C135.115295,218.161880 115.675430,233.276581 89.854553,240.879715 
	C88.374535,241.315506 86.918968,241.834335 85.452019,242.314514 
	C85.471077,242.811615 85.490143,243.308716 85.509201,243.805817 
	C87.460434,244.065857 89.413681,244.563797 91.362572,244.547302 
	C103.842422,244.441711 116.369873,244.833527 128.784927,243.845779 
	C138.461563,243.075897 148.234726,241.336060 157.526535,238.559830 
	C165.901443,236.057541 173.656723,231.526184 179.171112,224.014374 
	C179.171112,224.014374 179.303528,224.276505 179.932892,224.078568 
	C181.711380,221.774689 183.489853,219.470795 185.183228,217.209427 
M506.530090,202.005646 
	C508.727203,210.132324 513.934631,215.748062 521.538086,218.917465 
	C530.720581,222.745117 540.234558,223.300018 549.834717,220.370422 
	C562.856506,216.396698 570.786621,207.593491 571.434387,194.229507 
	C572.207214,178.284073 571.881287,162.282593 571.837158,146.305923 
	C571.833801,145.098343 570.355469,142.922516 569.437805,142.853271 
	C564.748413,142.499420 560.018066,142.689728 554.923706,142.689728 
	C554.923706,156.868225 555.057861,170.169769 554.845947,183.465805 
	C554.777954,187.733597 553.919800,192.007751 553.202576,196.241638 
	C552.201843,202.149124 548.034729,204.918472 542.611572,206.020889 
	C530.036377,208.577179 521.648987,201.734909 521.371460,188.454849 
	C521.131531,176.973236 521.376465,165.482361 521.278442,153.996674 
	C521.161377,140.288437 523.095093,142.785950 509.706390,142.300583 
	C505.291321,142.140533 503.858643,143.748917 503.934235,148.042114 
	C504.154083,160.523468 503.877808,173.015350 504.208954,185.492142 
	C504.348907,190.765106 505.521545,196.010635 506.530090,202.005646 
M367.858795,161.444717 
	C358.439209,182.563385 364.683228,204.737091 383.090027,215.533722 
	C400.753143,225.894119 427.227264,221.707565 438.517090,206.199127 
	C434.973206,203.183975 431.717041,199.366272 427.580597,197.407883 
	C425.917206,196.620331 422.326965,199.920959 419.604279,201.342957 
	C418.574585,201.880722 417.537720,202.412888 416.471130,202.870789 
	C405.300079,207.666901 392.350647,204.324768 385.644165,194.929993 
	C379.480499,186.295547 380.512512,171.364182 387.829620,163.309998 
	C395.468964,154.901138 408.441711,153.095200 418.954346,158.979752 
	C421.888885,160.622391 425.169342,163.989670 427.662598,163.481567 
	C430.738312,162.854782 433.058868,158.884995 435.888550,156.584778 
	C438.648926,154.340897 438.018036,152.732300 435.654877,150.617859 
	C415.135498,132.258408 382.130219,137.212112 367.858795,161.444717 
M355.031311,151.805237 
	C354.432556,150.450500 354.194122,148.668671 353.176666,147.810196 
	C346.444519,142.129974 338.554108,139.086823 329.756104,139.477783 
	C319.776764,139.921234 310.567627,142.535065 305.445465,152.299515 
	C298.483032,165.572113 303.729034,179.429398 317.688416,184.954666 
	C323.710419,187.338242 329.996002,189.190582 335.707764,192.158188 
	C338.042053,193.370987 340.715912,197.083496 340.447418,199.324875 
	C340.137695,201.910889 337.203064,205.110413 334.607391,206.308701 
	C328.507355,209.124802 322.255585,207.981918 316.608521,204.320129 
	C309.662323,199.815918 309.688507,199.775620 303.947449,205.574692 
	C303.596161,205.929550 303.265594,206.308945 302.887634,206.632874 
	C299.818726,209.263062 300.410248,211.595627 303.244354,214.044662 
	C315.278259,224.443741 333.915985,225.912308 347.482117,217.445724 
	C359.455505,209.973160 361.850494,192.471985 351.379089,183.058685 
	C346.751862,178.899033 340.254150,176.781525 334.522369,173.902695 
	C330.686096,171.975891 326.330475,170.850876 322.936096,168.369934 
	C321.113922,167.038086 319.731995,163.388153 320.160614,161.172974 
	C320.593292,158.936783 323.340973,155.753036 325.374084,155.512039 
	C329.627441,155.007828 334.438599,155.260712 338.372681,156.828583 
	C346.712677,160.152313 346.543945,160.580704 352.948669,154.178894 
	C353.536713,153.591110 354.091522,152.970062 355.031311,151.805237 
M260.791840,172.997681 
	C259.571899,172.358658 257.821289,172.037521 257.217407,171.029465 
	C253.030731,164.040894 249.188599,156.845917 245.003006,149.856659 
	C243.433884,147.236450 241.555542,143.329117 239.275024,142.900848 
	C233.820358,141.876495 228.043060,142.570038 221.540588,142.570038 
	C222.831329,144.973831 223.382385,146.156143 224.068527,147.254013 
	C231.644836,159.376419 239.544601,171.311722 246.667450,183.694229 
	C249.115662,187.950256 250.035614,193.244202 250.908707,198.195358 
	C251.562988,201.905579 251.002319,205.826324 251.020233,209.653152 
	C251.090591,224.680038 248.298126,221.705643 264.036224,222.125900 
	C267.105896,222.207886 268.188324,220.833344 268.130646,217.932053 
	C268.011658,211.944107 268.245026,205.941193 267.915344,199.967529 
	C267.549713,193.343369 269.506683,187.631058 273.075317,182.139084 
	C280.228210,171.131104 287.131775,159.960709 294.092957,148.829025 
	C295.170288,147.106277 296.007294,145.233231 297.507263,142.379974 
	C292.223206,142.379974 288.100830,142.573563 284.005280,142.325089 
	C279.974548,142.080536 277.556671,143.781342 275.646973,147.231415 
	C270.980194,155.662247 266.044373,163.944092 260.791840,172.997681 
M466.772827,167.500168 
	C466.772766,163.341293 466.790771,159.182343 466.769348,155.023575 
	C466.695648,140.713959 468.373444,142.552231 453.300446,142.365341 
	C450.067230,142.325272 448.924408,143.588181 448.935791,146.801102 
	C449.019409,170.423218 449.033234,194.046005 448.925873,217.667923 
	C448.909790,221.209579 450.224152,222.210022 453.630798,222.166656 
	C466.269684,222.005722 478.911835,222.117844 491.552704,222.093521 
	C503.895142,222.069778 501.557617,222.883789 501.989166,211.737534 
	C502.134033,207.996201 500.826477,206.860519 497.125366,206.915131 
	C488.481873,207.042633 479.832031,206.656128 471.184784,206.655746 
	C467.786652,206.655594 466.632263,205.460617 466.703339,201.935730 
	C466.927948,190.794586 466.777924,179.645920 466.772827,167.500168 
z"/>
<path fill="#20C81F" opacity="1.000000" stroke="none" 
	d="
M145.045471,46.687714 
	C144.250702,46.726719 143.455933,46.765728 141.929108,46.540722 
	C136.893951,46.177914 132.574554,45.796356 128.291412,46.043381 
	C120.982620,46.464905 114.756737,48.265381 111.116684,56.039570 
	C105.921661,67.134720 109.619080,79.714256 120.419342,85.013176 
	C125.979469,87.741135 131.598511,90.539650 136.610214,94.119324 
	C139.370468,96.090881 141.757034,97.431007 145.069489,96.940941 
	C145.069489,96.940941 145.008835,96.990295 145.143738,97.279999 
	C146.932541,99.078110 148.406570,100.871262 150.269806,102.048279 
	C161.577393,109.191360 172.595093,116.680313 180.931000,127.377968 
	C185.427704,133.148682 189.679306,139.110397 194.041489,144.985947 
	C194.041489,144.985947 193.998184,144.999634 193.996063,145.406036 
	C195.496384,152.870804 197.407074,159.871536 198.413452,166.999908 
	C200.314865,180.468033 197.984161,193.176193 190.708725,204.939682 
	C188.369949,208.721161 187.051071,213.133392 185.265579,217.257065 
	C185.265579,217.257065 185.183228,217.209427 184.880493,217.269913 
	C182.819687,219.645767 181.061600,221.961136 179.303528,224.276505 
	C179.303528,224.276505 179.171112,224.014374 178.854065,224.102509 
	C170.075668,229.569763 162.190521,236.000183 151.977600,238.098282 
	C146.525558,239.218338 141.192200,241.540222 135.725479,241.833847 
	C124.604660,242.431168 113.429672,242.034088 102.277092,242.009262 
	C100.750214,242.005875 99.223808,241.787659 97.697182,241.668884 
	C98.172440,240.488052 98.706711,240.236465 99.235703,239.974213 
	C106.331902,236.456055 113.979126,233.714355 120.360565,229.188141 
	C126.195992,225.049179 130.799591,219.105103 135.700211,213.732285 
	C143.440613,205.246002 148.748413,194.982376 150.656555,184.007736 
	C154.601685,161.317368 145.557098,141.794434 132.240036,124.156265 
	C125.795624,115.620773 118.112465,108.031166 111.365860,99.708725 
	C107.971451,95.521477 105.396416,90.666504 102.486183,86.091019 
	C97.394463,78.085777 97.376518,69.092972 98.164391,60.202854 
	C98.516129,56.233906 99.828018,51.770695 102.194687,48.669186 
	C109.070068,39.659042 117.945221,33.648865 129.982635,33.963459 
	C134.141205,34.072140 138.321716,34.198719 142.459747,33.886719 
	C144.645233,33.721939 146.760925,32.631554 149.191406,32.056789 
	C154.103561,28.109995 155.600113,22.926531 155.153030,16.681839 
	C157.175598,13.881627 159.038147,11.377724 160.900696,8.873819 
	C160.900696,8.873818 161.006989,8.924272 161.367096,8.942924 
	C165.101334,8.236814 168.726532,8.068512 171.801773,6.681192 
	C180.444870,2.782096 187.671341,6.705277 194.888657,10.363986 
	C198.301147,12.093891 201.253998,14.730488 204.415100,16.956278 
	C204.652298,17.291370 204.889481,17.626467 205.117584,18.685644 
	C206.285370,23.866558 207.405594,28.340130 208.710815,32.759052 
	C208.874084,33.311790 210.015167,33.575710 210.703171,33.973454 
	C210.750214,35.375179 210.797256,36.776909 210.404602,38.675697 
	C209.124146,42.033039 208.503693,44.981575 207.399948,47.736496 
	C204.474243,55.039120 198.950577,60.153019 192.330780,63.959362 
	C178.681137,71.807846 157.816772,64.841469 151.288849,50.552441 
	C150.410156,48.629044 149.328903,46.670818 147.887787,45.162014 
	C145.801453,42.977661 145.174713,44.622849 145.045471,46.687714 
M193.925079,45.199718 
	C197.397522,37.509758 196.317917,29.061407 191.196075,23.844444 
	C183.694366,16.203396 172.222336,16.413340 165.078720,24.322418 
	C158.442108,31.670162 159.578415,44.714340 167.375732,50.690823 
	C175.605698,56.998932 187.652618,54.781200 193.925079,45.199718 
M181.838181,136.495575 
	C181.900604,136.822403 181.963028,137.149246 182.025452,137.476074 
	C182.099335,137.151443 182.173218,136.826828 181.838181,136.495575 
z"/>
<path fill="#1FC91E" opacity="1.000000" stroke="none" 
	d="
M32.826485,32.564754 
	C32.932816,32.201744 33.039146,31.838732 33.662041,31.247145 
	C36.031567,30.159748 38.125900,28.260893 39.695053,28.625048 
	C45.951462,30.076975 45.316162,27.130274 43.855785,24.106611 
	C46.252445,21.580097 47.864601,18.928728 50.221458,17.555313 
	C62.629456,10.324770 75.726295,5.313572 90.486427,5.936295 
	C97.567528,6.235042 104.672348,6.045829 111.764900,5.956565 
	C114.069168,5.927565 116.363876,5.427139 118.671608,5.302332 
	C120.849838,5.184530 123.039452,5.277043 125.224052,5.277043 
	C121.025192,7.737283 116.621307,9.013120 112.591957,11.035268 
	C100.057419,17.325802 89.062988,25.437269 80.533913,36.931969 
	C72.816383,47.332962 68.790047,58.604382 67.856308,71.484825 
	C66.931564,84.241158 72.037186,95.176819 77.305573,105.909706 
	C79.780815,110.952332 84.976418,114.659630 88.939240,118.972061 
	C88.939240,118.972061 89.158394,119.230446 89.159363,119.789902 
	C91.267731,124.018860 91.906906,128.950531 97.288910,129.805023 
	C97.288910,129.805023 97.200241,129.756088 97.156738,130.165619 
	C97.392014,134.866684 103.458878,141.437607 108.306824,142.698746 
	C108.306824,142.698746 108.007690,142.855042 108.064758,143.204285 
	C109.174423,145.752060 110.069923,148.045837 111.327438,150.120132 
	C112.407486,151.901688 114.296074,153.255966 115.126091,155.112579 
	C116.647034,158.514694 117.724121,162.124680 118.857216,165.689011 
	C122.463387,177.032837 123.022476,188.036819 114.625275,197.940033 
	C112.434715,197.285538 110.533165,196.106384 108.816177,196.331955 
	C107.903648,196.451828 107.310959,199.006210 106.363731,200.876709 
	C105.482094,199.066910 104.731560,197.526230 104.056778,195.652832 
	C112.694649,186.529846 114.849960,171.784470 102.074081,162.698029 
	C95.379288,157.936539 87.947952,154.223312 80.993080,149.810013 
	C76.969559,147.256866 71.560051,146.443130 69.668449,140.968170 
	C69.388969,140.159256 67.594582,139.791260 66.442497,139.385681 
	C64.720917,138.779587 62.780388,138.617554 61.227970,137.743011 
	C57.009335,135.366486 52.945679,132.714844 48.820591,130.172256 
	C48.820591,130.172256 48.855095,130.093643 48.735725,129.847427 
	C48.245018,129.434875 47.873680,129.268524 47.502338,129.102188 
	C47.502338,129.102188 47.238773,129.132004 47.131729,128.652512 
	C47.017712,127.116493 47.010735,126.059959 47.262497,124.956772 
	C47.819462,124.630608 48.117687,124.351097 48.415916,124.071594 
	C48.228905,123.912605 48.041889,123.753616 47.854877,123.594620 
	C47.568787,124.061836 47.282692,124.529053 46.631824,124.992363 
	C40.168407,121.917175 37.537315,119.577667 38.272411,112.849838 
	C36.570049,113.428230 35.162415,113.906494 33.754780,114.384750 
	C33.754780,114.384750 33.711113,114.326508 33.758015,113.895355 
	C31.707508,104.845009 26.775627,97.357384 23.644209,89.108864 
	C18.334606,75.122742 22.802219,62.591530 24.486828,49.463749 
	C24.560102,48.892727 25.402008,48.457382 25.619610,47.861595 
	C26.717911,44.854473 27.727898,41.815094 28.768869,38.787033 
	C28.768869,38.787033 28.863476,39.023163 29.175980,38.916718 
	C30.601152,36.728432 31.713818,34.646595 32.826485,32.564754 
M84.877426,124.567535 
	C85.476685,124.132599 86.075943,123.697662 86.675201,123.262726 
	C86.373184,122.952621 86.071175,122.642509 85.769157,122.332397 
	C85.322815,122.924271 84.876465,123.516144 84.877426,124.567535 
M64.489647,14.540736 
	C64.489647,14.540736 64.463104,14.482828 64.489647,14.540736 
M62.460297,13.491440 
	C62.460297,13.491440 62.517551,13.465631 62.460297,13.491440 
z"/>
<path fill="#E8F2EC" opacity="1.000000" stroke="none" 
	d="
M506.377441,201.637146 
	C505.521545,196.010635 504.348907,190.765106 504.208954,185.492142 
	C503.877808,173.015350 504.154083,160.523468 503.934235,148.042114 
	C503.858643,143.748917 505.291321,142.140533 509.706390,142.300583 
	C523.095093,142.785950 521.161377,140.288437 521.278442,153.996674 
	C521.376465,165.482361 521.131531,176.973236 521.371460,188.454849 
	C521.648987,201.734909 530.036377,208.577179 542.611572,206.020889 
	C548.034729,204.918472 552.201843,202.149124 553.202576,196.241638 
	C553.919800,192.007751 554.777954,187.733597 554.845947,183.465805 
	C555.057861,170.169769 554.923706,156.868225 554.923706,142.689728 
	C560.018066,142.689728 564.748413,142.499420 569.437805,142.853271 
	C570.355469,142.922516 571.833801,145.098343 571.837158,146.305923 
	C571.881287,162.282593 572.207214,178.284073 571.434387,194.229507 
	C570.786621,207.593491 562.856506,216.396698 549.834717,220.370422 
	C540.234558,223.300018 530.720581,222.745117 521.538086,218.917465 
	C513.934631,215.748062 508.727203,210.132324 506.377441,201.637146 
z"/>
<path fill="#E8F2EB" opacity="1.000000" stroke="none" 
	d="
M368.051880,161.126434 
	C382.130219,137.212112 415.135498,132.258408 435.654877,150.617859 
	C438.018036,152.732300 438.648926,154.340897 435.888550,156.584778 
	C433.058868,158.884995 430.738312,162.854782 427.662598,163.481567 
	C425.169342,163.989670 421.888885,160.622391 418.954346,158.979752 
	C408.441711,153.095200 395.468964,154.901138 387.829620,163.309998 
	C380.512512,171.364182 379.480499,186.295547 385.644165,194.929993 
	C392.350647,204.324768 405.300079,207.666901 416.471130,202.870789 
	C417.537720,202.412888 418.574585,201.880722 419.604279,201.342957 
	C422.326965,199.920959 425.917206,196.620331 427.580597,197.407883 
	C431.717041,199.366272 434.973206,203.183975 438.517090,206.199127 
	C427.227264,221.707565 400.753143,225.894119 383.090027,215.533722 
	C364.683228,204.737091 358.439209,182.563385 368.051880,161.126434 
z"/>
<path fill="#E8F2EB" opacity="1.000000" stroke="none" 
	d="
M354.846558,152.084839 
	C354.091522,152.970062 353.536713,153.591110 352.948669,154.178894 
	C346.543945,160.580704 346.712677,160.152313 338.372681,156.828583 
	C334.438599,155.260712 329.627441,155.007828 325.374084,155.512039 
	C323.340973,155.753036 320.593292,158.936783 320.160614,161.172974 
	C319.731995,163.388153 321.113922,167.038086 322.936096,168.369934 
	C326.330475,170.850876 330.686096,171.975891 334.522369,173.902695 
	C340.254150,176.781525 346.751862,178.899033 351.379089,183.058685 
	C361.850494,192.471985 359.455505,209.973160 347.482117,217.445724 
	C333.915985,225.912308 315.278259,224.443741 303.244354,214.044662 
	C300.410248,211.595627 299.818726,209.263062 302.887634,206.632874 
	C303.265594,206.308945 303.596161,205.929550 303.947449,205.574692 
	C309.688507,199.775620 309.662323,199.815918 316.608521,204.320129 
	C322.255585,207.981918 328.507355,209.124802 334.607391,206.308701 
	C337.203064,205.110413 340.137695,201.910889 340.447418,199.324875 
	C340.715912,197.083496 338.042053,193.370987 335.707764,192.158188 
	C329.996002,189.190582 323.710419,187.338242 317.688416,184.954666 
	C303.729034,179.429398 298.483032,165.572113 305.445465,152.299515 
	C310.567627,142.535065 319.776764,139.921234 329.756104,139.477783 
	C338.554108,139.086823 346.444519,142.129974 353.176666,147.810196 
	C354.194122,148.668671 354.432556,150.450500 354.846558,152.084839 
z"/>
<path fill="#20C61F" opacity="1.000000" stroke="none" 
	d="
M103.981018,195.985535 
	C104.731560,197.526230 105.482094,199.066910 106.363731,200.876709 
	C107.310959,199.006210 107.903648,196.451828 108.816177,196.331955 
	C110.533165,196.106384 112.434715,197.285538 114.483734,198.255356 
	C111.971237,200.776428 109.349609,203.095490 106.464027,205.018494 
	C103.814346,206.784271 100.926094,208.217300 98.055435,209.617508 
	C96.110466,210.566208 94.014107,211.204529 91.527466,211.987274 
	C87.296875,211.717163 83.497459,211.047256 79.760857,211.301254 
	C77.176117,211.476974 73.386322,212.199036 72.396538,213.953110 
	C69.954185,218.281326 68.814087,223.344391 67.150497,228.112045 
	C67.150490,228.112045 67.128601,228.107773 66.764122,228.109329 
	C60.172138,230.845795 56.384861,237.659882 48.668507,238.132126 
	C44.078346,238.413025 39.563965,239.932251 35.015511,240.894745 
	C34.552418,240.873520 34.089321,240.852310 33.295692,240.333008 
	C30.556149,238.502213 28.000673,237.377274 25.763903,235.800293 
	C16.887989,229.542542 11.713702,220.851852 11.080199,210.092667 
	C9.933028,190.609543 33.237026,169.385529 55.102249,182.670990 
	C58.845306,184.945297 62.979183,187.839706 64.939369,191.511658 
	C68.581139,198.333633 73.763474,200.991577 81.287018,201.125336 
	C82.732193,200.836151 83.869110,200.407547 85.295830,199.850296 
	C86.394012,199.514969 87.202393,199.308273 88.023933,199.447021 
	C88.562912,200.433411 89.088730,201.074356 89.614548,201.715302 
	C90.073257,200.838516 90.531967,199.961746 91.425613,199.068085 
	C95.900696,198.029312 99.940857,197.007416 103.981018,195.985535 
M48.645184,193.256714 
	C43.306694,190.967865 38.034393,190.348709 32.269024,194.076828 
	C25.752834,197.992416 23.214296,204.006104 23.954470,211.261444 
	C24.633429,217.916748 27.881262,223.038055 35.188351,225.834137 
	C39.262398,225.655380 43.336441,225.476624 47.759819,225.312088 
	C47.759819,225.312088 48.079586,225.170731 48.791130,225.115936 
	C56.044018,221.690994 59.310894,215.788452 58.853859,207.974518 
	C58.473873,201.477951 55.790810,196.233994 49.163338,193.806412 
	C49.163338,193.806412 49.121399,193.803665 48.645184,193.256714 
M101.256927,202.335770 
	C100.154305,201.941025 99.051682,201.546295 97.949051,201.151550 
	C97.868500,201.613632 97.787949,202.075714 97.707397,202.537781 
	C98.727852,202.611206 99.748306,202.684647 101.256927,202.335770 
z"/>
<path fill="#E7F1EA" opacity="1.000000" stroke="none" 
	d="
M261.004333,172.641785 
	C266.044373,163.944092 270.980194,155.662247 275.646973,147.231415 
	C277.556671,143.781342 279.974548,142.080536 284.005280,142.325089 
	C288.100830,142.573563 292.223206,142.379974 297.507263,142.379974 
	C296.007294,145.233231 295.170288,147.106277 294.092957,148.829025 
	C287.131775,159.960709 280.228210,171.131104 273.075317,182.139084 
	C269.506683,187.631058 267.549713,193.343369 267.915344,199.967529 
	C268.245026,205.941193 268.011658,211.944107 268.130646,217.932053 
	C268.188324,220.833344 267.105896,222.207886 264.036224,222.125900 
	C248.298126,221.705643 251.090591,224.680038 251.020233,209.653152 
	C251.002319,205.826324 251.562988,201.905579 250.908707,198.195358 
	C250.035614,193.244202 249.115662,187.950256 246.667450,183.694229 
	C239.544601,171.311722 231.644836,159.376419 224.068527,147.254013 
	C223.382385,146.156143 222.831329,144.973831 221.540588,142.570038 
	C228.043060,142.570038 233.820358,141.876495 239.275024,142.900848 
	C241.555542,143.329117 243.433884,147.236450 245.003006,149.856659 
	C249.188599,156.845917 253.030731,164.040894 257.217407,171.029465 
	C257.821289,172.037521 259.571899,172.358658 261.004333,172.641785 
z"/>
<path fill="#E8F2EA" opacity="1.000000" stroke="none" 
	d="
M466.772827,168.000153 
	C466.777924,179.645920 466.927948,190.794586 466.703339,201.935730 
	C466.632263,205.460617 467.786652,206.655594 471.184784,206.655746 
	C479.832031,206.656128 488.481873,207.042633 497.125366,206.915131 
	C500.826477,206.860519 502.134033,207.996201 501.989166,211.737534 
	C501.557617,222.883789 503.895142,222.069778 491.552704,222.093521 
	C478.911835,222.117844 466.269684,222.005722 453.630798,222.166656 
	C450.224152,222.210022 448.909790,221.209579 448.925873,217.667923 
	C449.033234,194.046005 449.019409,170.423218 448.935791,146.801102 
	C448.924408,143.588181 450.067230,142.325272 453.300446,142.365341 
	C468.373444,142.552231 466.695648,140.713959 466.769348,155.023575 
	C466.790771,159.182343 466.772766,163.341293 466.772827,168.000153 
z"/>
<path fill="#2DAE2E" opacity="1.000000" stroke="none" 
	d="
M148.908112,31.959066 
	C146.760925,32.631554 144.645233,33.721939 142.459747,33.886719 
	C138.321716,34.198719 134.141205,34.072140 129.982635,33.963459 
	C117.945221,33.648865 109.070068,39.659042 102.194687,48.669186 
	C99.828018,51.770695 98.516129,56.233906 98.164391,60.202854 
	C97.376518,69.092972 97.394463,78.085777 102.486183,86.091019 
	C105.396416,90.666504 107.971451,95.521477 111.365860,99.708725 
	C118.112465,108.031166 125.795624,115.620773 132.240036,124.156265 
	C145.557098,141.794434 154.601685,161.317368 150.656555,184.007736 
	C148.748413,194.982376 143.440613,205.246002 135.700211,213.732285 
	C130.799591,219.105103 126.195992,225.049179 120.360565,229.188141 
	C113.979126,233.714355 106.331902,236.456055 99.235703,239.974213 
	C98.706711,240.236465 98.172440,240.488052 97.697182,241.668884 
	C99.223808,241.787659 100.750214,242.005875 102.277092,242.009262 
	C113.429672,242.034088 124.604660,242.431168 135.725479,241.833847 
	C141.192200,241.540222 146.525558,239.218338 151.977600,238.098282 
	C162.190521,236.000183 170.075668,229.569763 178.906281,224.239594 
	C173.656723,231.526184 165.901443,236.057541 157.526535,238.559830 
	C148.234726,241.336060 138.461563,243.075897 128.784927,243.845779 
	C116.369873,244.833527 103.842422,244.441711 91.362572,244.547302 
	C89.413681,244.563797 87.460434,244.065857 85.509201,243.805817 
	C85.490143,243.308716 85.471077,242.811615 85.452019,242.314514 
	C86.918968,241.834335 88.374535,241.315506 89.854553,240.879715 
	C115.675430,233.276581 135.115295,218.161880 145.802551,192.961060 
	C152.123840,178.055313 149.873947,163.437347 144.145493,148.820175 
	C138.479355,134.362076 128.352859,123.164139 118.444382,111.726845 
	C110.389862,102.429558 102.200577,93.269646 97.931702,81.337967 
	C92.049904,64.898079 96.363625,46.517757 109.548325,38.516331 
	C115.278000,35.039150 122.466660,33.805393 129.133881,32.107109 
	C132.106308,31.349966 135.462387,31.658745 138.582397,32.019413 
	C143.901566,32.634296 146.527679,30.919403 147.881546,25.332769 
	C149.559769,18.407747 154.022842,12.877063 160.566818,8.946501 
	C159.038147,11.377724 157.175598,13.881627 154.811676,16.774586 
	C152.509567,22.095449 150.708847,27.027256 148.908112,31.959066 
z"/>
<path fill="#2BB32B" opacity="1.000000" stroke="none" 
	d="
M104.056778,195.652817 
	C99.940857,197.007416 95.900696,198.029312 91.053314,199.049805 
	C89.500977,199.066147 88.755875,199.083878 88.010773,199.101593 
	C87.202393,199.308273 86.394012,199.514969 84.931877,199.850677 
	C83.178337,200.315094 82.078552,200.650482 80.978767,200.985886 
	C73.763474,200.991577 68.581139,198.333633 64.939369,191.511658 
	C62.979183,187.839706 58.845306,184.945297 55.102249,182.670990 
	C33.237026,169.385529 9.933028,190.609543 11.080199,210.092667 
	C11.713702,220.851852 16.887989,229.542542 25.763903,235.800293 
	C28.000673,237.377274 30.556149,238.502213 32.980183,240.183136 
	C21.178888,237.981522 11.126902,227.186356 9.278810,215.061569 
	C7.133299,200.985504 13.364116,187.728592 24.555462,181.350418 
	C41.015152,171.969742 61.442848,178.291290 69.021957,193.225967 
	C70.744919,196.621063 73.411690,198.378937 77.479652,198.095306 
	C81.619164,197.806686 85.794022,198.067337 89.951096,197.979111 
	C97.850182,197.811478 103.680466,194.258835 106.813400,186.936234 
	C110.011749,179.460754 108.766212,172.153183 103.222000,166.600174 
	C99.107140,162.478760 93.554665,159.762848 88.550339,156.565186 
	C75.966370,148.524277 63.325558,140.572372 50.727589,132.553253 
	C50.051205,132.122711 49.558994,131.402832 48.900818,130.494949 
	C52.945679,132.714844 57.009335,135.366486 61.227970,137.743011 
	C62.780388,138.617554 64.720917,138.779587 66.442497,139.385681 
	C67.594582,139.791260 69.388969,140.159256 69.668449,140.968170 
	C71.560051,146.443130 76.969559,147.256866 80.993080,149.810013 
	C87.947952,154.223312 95.379288,157.936539 102.074081,162.698029 
	C114.849960,171.784470 112.694649,186.529846 104.056778,195.652817 
z"/>
<path fill="#2BB32B" opacity="1.000000" stroke="none" 
	d="
M88.900879,118.631744 
	C84.976418,114.659630 79.780815,110.952332 77.305573,105.909706 
	C72.037186,95.176819 66.931564,84.241158 67.856308,71.484825 
	C68.790047,58.604382 72.816383,47.332962 80.533913,36.931969 
	C89.062988,25.437269 100.057419,17.325802 112.591957,11.035268 
	C116.621307,9.013120 121.025192,7.737283 125.224052,5.277043 
	C123.039452,5.277043 120.849838,5.184530 118.671608,5.302332 
	C116.363876,5.427139 114.069168,5.927565 111.764900,5.956565 
	C104.672348,6.045829 97.567528,6.235042 90.486427,5.936295 
	C75.726295,5.313572 62.629456,10.324770 50.221458,17.555313 
	C47.864601,18.928728 46.252445,21.580097 43.855785,24.106611 
	C45.316162,27.130274 45.951462,30.076975 39.695053,28.625048 
	C38.125900,28.260893 36.031567,30.159748 33.842201,31.025009 
	C43.798973,16.562258 58.246658,7.584474 75.283524,5.435921 
	C94.382004,3.027374 113.862755,3.650060 133.177185,2.953825 
	C133.317749,3.775094 133.458328,4.596363 133.598907,5.417631 
	C130.314331,6.519711 127.016350,7.583580 123.747368,8.730121 
	C103.881950,15.697588 88.007225,27.638363 77.449608,46.115154 
	C66.274536,65.672539 67.561089,84.887352 79.297684,103.709457 
	C82.372627,108.640785 85.668243,113.434517 88.900879,118.631744 
z"/>
<path fill="#2BB32B" opacity="1.000000" stroke="none" 
	d="
M91.985451,211.981644 
	C94.014107,211.204529 96.110466,210.566208 98.055435,209.617508 
	C100.926094,208.217300 103.814346,206.784271 106.464027,205.018494 
	C109.349609,203.095490 111.971237,200.776428 114.849472,198.314713 
	C123.022476,188.036819 122.463387,177.032837 118.857216,165.689011 
	C117.724121,162.124680 116.647034,158.514694 115.126091,155.112579 
	C114.296074,153.255966 112.407486,151.901688 111.327438,150.120132 
	C110.069923,148.045837 109.174423,145.752060 108.214661,143.132858 
	C117.325043,150.271576 121.426216,160.324448 122.898369,171.670441 
	C123.913277,179.492371 123.914528,187.198318 120.089256,194.460770 
	C114.273178,205.502823 104.966042,211.280106 92.387680,212.597031 
	C91.990623,212.375900 91.985451,211.981644 91.985451,211.981644 
z"/>
<path fill="#2DAE2E" opacity="1.000000" stroke="none" 
	d="
M145.281860,46.943127 
	C145.174713,44.622849 145.801453,42.977661 147.887787,45.162014 
	C149.328903,46.670818 150.410156,48.629044 151.288849,50.552441 
	C157.816772,64.841469 178.681137,71.807846 192.330780,63.959362 
	C198.950577,60.153019 204.474243,55.039120 207.399948,47.736496 
	C208.503693,44.981575 209.124146,42.033039 210.311783,39.088036 
	C211.014008,54.036991 196.718307,68.272675 180.507309,69.042717 
	C166.715118,69.697861 156.509552,63.976414 149.685974,51.973778 
	C148.662750,50.173950 146.925308,48.780159 145.281860,46.943127 
z"/>
<path fill="#2DAE2E" opacity="1.000000" stroke="none" 
	d="
M144.888763,96.655746 
	C141.757034,97.431007 139.370468,96.090881 136.610214,94.119324 
	C131.598511,90.539650 125.979469,87.741135 120.419342,85.013176 
	C109.619080,79.714256 105.921661,67.134720 111.116684,56.039570 
	C114.756737,48.265381 120.982620,46.464905 128.291412,46.043381 
	C132.574554,45.796356 136.893951,46.177914 141.534348,46.483223 
	C135.945755,47.148830 129.802475,46.767620 124.136993,48.233326 
	C110.231346,51.830822 105.872185,69.138992 116.334396,79.048828 
	C120.232468,82.741089 125.297058,85.247322 129.967545,88.066010 
	C134.793839,90.978706 139.787567,93.613945 144.888763,96.655746 
z"/>
<path fill="#29B02C" opacity="1.000000" stroke="none" 
	d="
M28.461927,38.915321 
	C27.727898,41.815094 26.717911,44.854473 25.619610,47.861595 
	C25.402008,48.457382 24.560102,48.892727 24.486828,49.463749 
	C22.802219,62.591530 18.334606,75.122742 23.644209,89.108864 
	C26.775627,97.357384 31.707508,104.845009 33.763954,113.859436 
	C26.877558,107.076759 23.338839,98.174309 21.106535,88.791252 
	C16.958742,71.356804 18.542171,54.596157 28.461927,38.915321 
z"/>
<path fill="#2DAE2E" opacity="1.000000" stroke="none" 
	d="
M185.587112,217.170654 
	C187.051071,213.133392 188.369949,208.721161 190.708725,204.939682 
	C197.984161,193.176193 200.314865,180.468033 198.413452,166.999908 
	C197.407074,159.871536 195.496384,152.870804 194.009857,145.387970 
	C196.177551,151.991074 199.324509,158.885254 200.287903,166.072144 
	C202.819061,184.954422 198.028702,202.145187 185.587112,217.170654 
z"/>
<path fill="#2DAE2E" opacity="1.000000" stroke="none" 
	d="
M194.027893,144.613434 
	C189.679306,139.110397 185.427704,133.148682 180.931000,127.377968 
	C172.595093,116.680313 161.577393,109.191360 150.269806,102.048279 
	C148.406570,100.871262 146.932541,99.078110 145.156555,97.243065 
	C166.182068,107.701630 184.215912,121.709534 194.027893,144.613434 
z"/>
<path fill="#2DAE2E" opacity="1.000000" stroke="none" 
	d="
M204.380859,16.655872 
	C201.253998,14.730488 198.301147,12.093891 194.888657,10.363986 
	C187.671341,6.705277 180.444870,2.782096 171.801773,6.681192 
	C168.726532,8.068512 165.101334,8.236814 161.309418,8.932297 
	C171.451202,0.912188 188.426132,1.641004 198.817627,10.631433 
	C200.815750,12.360147 202.511429,14.438439 204.380859,16.655872 
z"/>
<path fill="#2BB32B" opacity="1.000000" stroke="none" 
	d="
M35.383781,241.050262 
	C39.563965,239.932251 44.078346,238.413025 48.668507,238.132126 
	C56.384861,237.659882 60.172138,230.845795 66.757904,228.100189 
	C64.606918,234.133484 59.308155,237.248795 53.665306,238.861069 
	C47.938427,240.497360 41.742538,240.492126 35.383781,241.050262 
z"/>
<path fill="#33A834" opacity="1.000000" stroke="none" 
	d="
M91.527466,211.987274 
	C91.985451,211.981644 91.990623,212.375900 91.985245,212.572693 
	C87.494675,212.879898 83.006264,213.143890 78.525330,213.050247 
	C75.180801,212.980362 73.472252,214.190842 72.450615,217.518494 
	C71.350777,221.100815 69.354454,224.407913 67.449883,227.973572 
	C68.814087,223.344391 69.954185,218.281326 72.396538,213.953110 
	C73.386322,212.199036 77.176117,211.476974 79.760857,211.301254 
	C83.497459,211.047256 87.296875,211.717163 91.527466,211.987274 
z"/>
<path fill="#29B02C" opacity="1.000000" stroke="none" 
	d="
M33.824116,114.706192 
	C35.162415,113.906494 36.570049,113.428230 38.272411,112.849838 
	C37.537315,119.577667 40.168407,121.917175 46.633522,124.994232 
	C47.000000,125.000000 47.003757,125.003433 47.003757,125.003433 
	C47.010735,126.059959 47.017712,127.116493 47.028534,128.569214 
	C42.652740,124.319473 38.273098,119.673553 33.824116,114.706192 
z"/>
<path fill="#2BB32B" opacity="1.000000" stroke="none" 
	d="
M108.252518,142.363739 
	C103.458878,141.437607 97.392014,134.866684 97.204071,130.147644 
	C100.929344,133.822998 104.563774,137.925873 108.252518,142.363739 
z"/>
<path fill="#2DAE2E" opacity="1.000000" stroke="none" 
	d="
M210.792725,33.572285 
	C210.015167,33.575710 208.874084,33.311790 208.710815,32.759052 
	C207.405594,28.340130 206.285370,23.866558 205.190964,18.987255 
	C207.143051,23.433559 209.012680,28.302338 210.792725,33.572285 
z"/>
<path fill="#2BB32B" opacity="1.000000" stroke="none" 
	d="
M97.234901,129.460968 
	C91.906906,128.950531 91.267731,124.018860 89.188507,119.956779 
	C91.871407,122.748444 94.526154,125.932678 97.234901,129.460968 
z"/>
<path fill="#2DAE2E" opacity="1.000000" stroke="none" 
	d="
M179.618210,224.177536 
	C181.061600,221.961136 182.819687,219.645767 184.923065,217.248657 
	C183.489853,219.470795 181.711380,221.774689 179.618210,224.177536 
z"/>
<path fill="#2BB32B" opacity="1.000000" stroke="none" 
	d="
M32.523560,32.745354 
	C31.713818,34.646595 30.601152,36.728432 29.118057,38.802540 
	C29.905300,36.838524 31.062969,34.882240 32.523560,32.745354 
z"/>
<path fill="#2BB32B" opacity="1.000000" stroke="none" 
	d="
M47.668728,129.364746 
	C47.873680,129.268524 48.245018,129.434875 48.773682,129.867462 
	C48.565708,129.964920 48.200413,129.796112 47.668728,129.364746 
z"/>
<path fill="#0F190E" opacity="1.000000" stroke="none" 
	d="
M193.743652,45.534920 
	C187.652618,54.781200 175.605698,56.998932 167.375732,50.690823 
	C159.578415,44.714340 158.442108,31.670162 165.078720,24.322418 
	C172.222336,16.413340 183.694366,16.203396 191.196075,23.844444 
	C196.317917,29.061407 197.397522,37.509758 193.743652,45.534920 
z"/>
<path fill="#16CF16" opacity="1.000000" stroke="none" 
	d="
M149.191406,32.056786 
	C150.708847,27.027256 152.509567,22.095449 154.651642,17.070896 
	C155.600113,22.926531 154.103561,28.109995 149.191406,32.056786 
z"/>
<path fill="#2DAE2E" opacity="1.000000" stroke="none" 
	d="
M182.042648,136.498886 
	C182.173218,136.826828 182.099335,137.151443 182.025452,137.476074 
	C181.963028,137.149246 181.900604,136.822403 182.042648,136.498886 
z"/>
<path fill="#2BB32B" opacity="1.000000" stroke="none" 
	d="
M84.653770,124.337776 
	C84.876465,123.516144 85.322815,122.924271 85.769165,122.332397 
	C86.071175,122.642509 86.373184,122.952621 86.675201,123.262726 
	C86.075943,123.697662 85.476685,124.132599 84.653770,124.337776 
z"/>
<path fill="#29B02C" opacity="1.000000" stroke="none" 
	d="
M46.998299,124.998138 
	C47.282692,124.529053 47.568787,124.061836 47.854877,123.594620 
	C48.041889,123.753616 48.228905,123.912605 48.415916,124.071594 
	C48.117687,124.351097 47.819462,124.630608 47.262497,124.956772 
	C47.003757,125.003433 47.000000,125.000000 46.998299,124.998138 
z"/>
<path fill="#2BB32B" opacity="1.000000" stroke="none" 
	d="
M64.476379,14.511782 
	C64.463104,14.482828 64.489647,14.540736 64.476379,14.511782 
z"/>
<path fill="#2BB32B" opacity="1.000000" stroke="none" 
	d="
M62.488922,13.478535 
	C62.517551,13.465631 62.460297,13.491440 62.488922,13.478535 
z"/>
<path fill="#10170E" opacity="1.000000" stroke="none" 
	d="
M34.625523,225.285919 
	C27.881262,223.038055 24.633429,217.916748 23.954470,211.261444 
	C23.214296,204.006104 25.752834,197.992416 33.021294,194.010452 
	C38.889507,193.897278 44.005455,193.850479 49.121399,193.803665 
	C49.121399,193.803665 49.163338,193.806412 49.170628,194.167847 
	C51.096966,196.866791 53.850430,198.915588 54.777912,201.596176 
	C57.511528,209.496750 57.535416,217.148117 49.803040,222.811172 
	C49.054188,223.359604 48.645943,224.373108 48.079590,225.170731 
	C48.079586,225.170731 47.759819,225.312088 47.091251,225.219788 
	C42.490295,225.180298 38.557911,225.233109 34.625523,225.285919 
z"/>
<path fill="#083F04" opacity="1.000000" stroke="none" 
	d="
M48.435364,225.143341 
	C48.645943,224.373108 49.054188,223.359604 49.803040,222.811172 
	C57.535416,217.148117 57.511528,209.496750 54.777912,201.596176 
	C53.850430,198.915588 51.096966,196.866791 49.191570,194.169571 
	C55.790810,196.233994 58.473873,201.477951 58.853859,207.974518 
	C59.310894,215.788452 56.044018,221.690994 48.435364,225.143341 
z"/>
<path fill="#083F04" opacity="1.000000" stroke="none" 
	d="
M48.883293,193.530182 
	C44.005455,193.850479 38.889507,193.897278 33.350086,193.911942 
	C38.034393,190.348709 43.306694,190.967865 48.883293,193.530182 
z"/>
<path fill="#083F04" opacity="1.000000" stroke="none" 
	d="
M34.906937,225.560028 
	C38.557911,225.233109 42.490295,225.180298 46.916588,225.212677 
	C43.336441,225.476624 39.262398,225.655380 34.906937,225.560028 
z"/>
<path fill="#1FC91E" opacity="1.000000" stroke="none" 
	d="
M101.012848,202.546921 
	C99.748306,202.684647 98.727852,202.611206 97.707397,202.537781 
	C97.787949,202.075714 97.868500,201.613632 97.949051,201.151550 
	C99.051682,201.546295 100.154305,201.941025 101.012848,202.546921 
z"/>
<path fill="#1FC91E" opacity="1.000000" stroke="none" 
	d="
M88.023933,199.447021 
	C88.755875,199.083878 89.500977,199.066147 90.618378,199.066711 
	C90.531967,199.961746 90.073257,200.838516 89.614548,201.715302 
	C89.088730,201.074356 88.562912,200.433411 88.023933,199.447021 
z"/>
<path fill="#1FC91E" opacity="1.000000" stroke="none" 
	d="
M81.287018,201.125336 
	C82.078552,200.650482 83.178337,200.315094 84.642075,199.979309 
	C83.869110,200.407547 82.732193,200.836151 81.287018,201.125336 
z"/>
</svg>